<svg width="20" height="20" viewBox="0 0 20 20" fill="none" xmlns="http://www.w3.org/2000/svg">
<path d="M3.59998 1.6001C2.50017 1.6001 1.59998 2.50029 1.59998 3.6001V16.4001C1.59998 17.4999 2.50017 18.4001 3.59998 18.4001H10.3328C10.376 18.4072 10.4201 18.4072 10.4633 18.4001H12.7328C12.776 18.4072 12.8201 18.4072 12.8633 18.4001H16.4C17.4998 18.4001 18.4 17.4999 18.4 16.4001V3.6001C18.4 2.50029 17.4998 1.6001 16.4 1.6001H3.59998ZM3.59998 2.4001H16.4C17.0674 2.4001 17.6 2.9327 17.6 3.6001V16.4001C17.6 17.0675 17.0674 17.6001 16.4 17.6001H13.2V12.0001H14.7281L15.2883 9.2001H13.2V8.4001C13.2 8.1771 13.2212 8.15967 13.2961 8.11104C13.3709 8.0624 13.6023 8.0001 14 8.0001H15.2V5.74775L14.9719 5.63916C14.9719 5.63916 14.053 5.2001 12.8 5.2001C11.9 5.2001 11.1606 5.55868 10.6875 6.1501C10.2143 6.74152 9.99998 7.53343 9.99998 8.4001V9.2001H8.79998V12.0001H9.99998V17.6001H3.59998C2.93258 17.6001 2.39998 17.0675 2.39998 16.4001V3.6001C2.39998 2.9327 2.93258 2.4001 3.59998 2.4001ZM12.8 6.0001C13.6316 6.0001 14.1549 6.18348 14.4 6.28057V7.2001H14C13.5396 7.2001 13.1708 7.23818 12.8601 7.43994C12.5495 7.64171 12.4 8.02469 12.4 8.4001V10.0001H14.3117L14.0719 11.2001H12.4V17.6001H10.8V11.2001H9.59998V10.0001H10.8V8.4001C10.8 7.66676 10.9856 7.05868 11.3125 6.6501C11.6393 6.24152 12.1 6.0001 12.8 6.0001Z" fill="black"/>
</svg>
