<svg width="20" height="20" viewBox="0 0 20 20" fill="none" xmlns="http://www.w3.org/2000/svg">
<rect width="20" height="20" fill="white"/>
<path d="M6.40001 1.19995C3.53301 1.19995 1.20001 3.53294 1.20001 6.39995V13.6C1.20001 16.467 3.53301 18.8 6.40001 18.8H13.6C16.467 18.8 18.8 16.467 18.8 13.6V6.39995C18.8 3.53294 16.467 1.19995 13.6 1.19995H6.40001ZM6.40001 1.99995H13.6C16.0346 1.99995 18 3.96536 18 6.39995V13.6C18 16.0345 16.0346 18 13.6 18H6.40001C3.96542 18 2.00001 16.0345 2.00001 13.6V6.39995C2.00001 3.96536 3.96542 1.99995 6.40001 1.99995ZM14.8 4.39995C14.5878 4.39995 14.3844 4.48424 14.2343 4.63427C14.0843 4.7843 14 4.98778 14 5.19995C14 5.41212 14.0843 5.61561 14.2343 5.76564C14.3844 5.91567 14.5878 5.99995 14.8 5.99995C15.0122 5.99995 15.2157 5.91567 15.3657 5.76564C15.5157 5.61561 15.6 5.41212 15.6 5.19995C15.6 4.98778 15.5157 4.7843 15.3657 4.63427C15.2157 4.48424 15.0122 4.39995 14.8 4.39995ZM10 5.59995C7.5747 5.59995 5.60001 7.57464 5.60001 9.99995C5.60001 12.4253 7.5747 14.4 10 14.4C12.4253 14.4 14.4 12.4253 14.4 9.99995C14.4 7.57464 12.4253 5.59995 10 5.59995ZM10 6.39995C11.993 6.39995 13.6 8.00699 13.6 9.99995C13.6 11.9929 11.993 13.6 10 13.6C8.00705 13.6 6.40001 11.9929 6.40001 9.99995C6.40001 8.00699 8.00705 6.39995 10 6.39995Z" fill="black"/>
</svg>
