<svg width="8" height="13" viewBox="0 0 8 13" fill="none" xmlns="http://www.w3.org/2000/svg">
<g clip-path="url(#clip0_162_518)">
<path d="M6.11793 0.709694C4.793 -0.236229 3.08107 -0.236229 1.75692 0.709694C0.0504334 1.92683 -0.495859 4.29871 0.486379 6.22633L3.93742 13L7.38847 6.22633C8.37071 4.29871 7.82519 1.92683 6.11793 0.709694ZM6.70696 5.82866L3.9382 11.2638L1.16866 5.82866C0.380696 4.28124 0.818196 2.37858 2.1882 1.40187C2.71973 1.02251 3.32819 0.83199 3.93742 0.83199C4.54666 0.83199 5.15512 1.02167 5.68665 1.40104C7.05665 2.37858 7.49493 4.28124 6.70696 5.82866Z" fill="#5A89BD"/>
<path d="M3.93783 1.73294C2.86701 1.73294 1.99512 2.66639 1.99512 3.81281C1.99512 4.95923 2.86701 5.89268 3.93783 5.89268C5.00866 5.89268 5.88055 4.95923 5.88055 3.81281C5.88055 2.66639 5.00944 1.73294 3.93783 1.73294ZM3.93783 5.06073C3.29518 5.06073 2.7722 4.50083 2.7722 3.81281C2.7722 3.12479 3.29518 2.56489 3.93783 2.56489C4.58049 2.56489 5.10347 3.12479 5.10347 3.81281C5.10347 4.50083 4.58049 5.06073 3.93783 5.06073Z" fill="#5A89BD"/>
</g>
<defs>
<clipPath id="clip0_162_518">
<rect width="7.875" height="13" fill="white"/>
</clipPath>
</defs>
</svg>
