<svg width="20" height="20" viewBox="0 0 20 20" fill="none" xmlns="http://www.w3.org/2000/svg">
<g clip-path="url(#clip0_150_45)">
<path d="M13.6875 2.1875C11.2953 2.1875 9.34999 4.13281 9.34999 6.525C9.34999 6.66875 9.38593 6.80938 9.39999 6.95C6.44218 6.66719 3.82655 5.24219 2.04999 3.0625C1.96718 2.95781 1.83905 2.90156 1.70468 2.91094C1.57186 2.92031 1.45311 2.99688 1.38749 3.1125C1.01405 3.75469 0.799989 4.49375 0.799989 5.2875C0.799989 6.24844 1.14374 7.12813 1.67499 7.85C1.57186 7.80469 1.45936 7.77969 1.36249 7.725C1.23905 7.65938 1.09061 7.6625 0.970301 7.73438C0.849989 7.80625 0.776551 7.93594 0.774989 8.075V8.125C0.774989 9.59844 1.53749 10.8781 2.66249 11.6625C2.64999 11.6609 2.63749 11.6656 2.62499 11.6625C2.48749 11.6391 2.34843 11.6875 2.25624 11.7922C2.16405 11.8969 2.13436 12.0422 2.17499 12.175C2.62186 13.5641 3.76249 14.625 5.17499 15.0125C4.04999 15.6813 2.7453 16.075 1.33749 16.075C1.0328 16.075 0.740614 16.0594 0.449989 16.025C0.262489 16 0.0828011 16.1094 0.0203012 16.2875C-0.0437613 16.4656 0.0265512 16.6641 0.187489 16.7625C1.99218 17.9203 4.13436 18.6 6.43749 18.6C10.1703 18.6 13.0984 17.0406 15.0625 14.8125C17.0266 12.5844 18.05 9.69063 18.05 6.9875C18.05 6.87344 18.0406 6.7625 18.0375 6.65C18.7703 6.08906 19.425 5.43125 19.9375 4.6625C20.0391 4.51406 20.0281 4.31563 19.9109 4.17813C19.7953 4.04063 19.6 3.99844 19.4375 4.075C19.2312 4.16719 18.9906 4.17656 18.775 4.25C19.0594 3.87031 19.3031 3.46094 19.45 3C19.5 2.84219 19.4453 2.66875 19.3156 2.56563C19.1859 2.46406 19.0047 2.45156 18.8625 2.5375C18.1797 2.94219 17.4234 3.22656 16.625 3.4C15.85 2.675 14.8297 2.1875 13.6875 2.1875ZM13.6875 2.9875C14.7078 2.9875 15.6297 3.42344 16.275 4.1125C16.3719 4.2125 16.5141 4.25469 16.65 4.225C17.1719 4.12188 17.6672 3.97031 18.15 3.775C17.8719 4.15 17.5281 4.47031 17.125 4.7125C16.9422 4.80156 16.8562 5.0125 16.9234 5.20469C16.9891 5.39531 17.1891 5.50625 17.3875 5.4625C17.7875 5.41406 18.1437 5.25156 18.525 5.15C18.1828 5.52031 17.8078 5.85469 17.4 6.15C17.2891 6.23125 17.2281 6.3625 17.2375 6.5C17.2437 6.6625 17.25 6.82344 17.25 6.9875C17.25 9.4875 16.2906 12.2016 14.4625 14.275C12.6344 16.3484 9.94999 17.8 6.43749 17.8C4.84218 17.8 3.33593 17.4469 1.97499 16.825C3.66249 16.6953 5.21874 16.0984 6.47499 15.1125C6.60624 15.0078 6.6578 14.8328 6.60468 14.6734C6.55155 14.5141 6.40468 14.4047 6.23749 14.4C4.91874 14.3766 3.81405 13.6094 3.22499 12.525C3.24686 12.525 3.26561 12.525 3.28749 12.525C3.6828 12.525 4.07343 12.475 4.43749 12.375C4.61249 12.3234 4.7328 12.1609 4.72655 11.9781C4.7203 11.7953 4.59061 11.6391 4.41249 11.6C2.98905 11.3125 1.92186 10.1531 1.67499 8.7125C2.07811 8.85156 2.49061 8.96094 2.93749 8.975C3.1203 8.98594 3.28593 8.87188 3.34218 8.69844C3.39843 8.525 3.32968 8.33438 3.17499 8.2375C2.22499 7.60156 1.59999 6.51875 1.59999 5.2875C1.59999 4.83125 1.71874 4.4125 1.87499 4.0125C3.87499 6.20781 6.67499 7.66563 9.83749 7.825C9.96249 7.83125 10.0844 7.77969 10.1656 7.68438C10.2469 7.5875 10.2781 7.45938 10.25 7.3375C10.1891 7.07813 10.15 6.80313 10.15 6.525C10.15 4.56563 11.7281 2.9875 13.6875 2.9875Z" fill="black"/>
</g>
<defs>
<clipPath id="clip0_150_45">
<rect width="20" height="20" fill="white"/>
</clipPath>
</defs>
</svg>
