<svg width="20" height="20" viewBox="0 0 20 20" fill="none" xmlns="http://www.w3.org/2000/svg">
<g clip-path="url(#clip0_150_34)">
<path d="M9.61913 3.77431C8.58397 3.76454 7.80272 3.81337 7.14842 4.15028C6.87987 4.287 6.68944 4.46278 6.54296 4.66786C6.46483 4.7704 6.39159 4.86317 6.35741 5.07802C6.33788 5.18056 6.32323 5.35145 6.43065 5.537C6.53807 5.72743 6.76757 5.85438 6.92382 5.8788C7.041 5.89345 7.29003 5.99599 7.33397 6.05458C7.43651 6.20106 7.47557 6.30849 7.49022 6.36708C7.50487 6.42567 7.49999 6.38661 7.49999 6.38661V6.4452C7.49999 6.4452 7.53905 7.06044 7.51464 7.6952C7.49999 8.0077 7.47069 8.33485 7.42186 8.55458C7.37303 8.77431 7.25096 8.82802 7.42674 8.72548C7.30467 8.79872 7.34862 8.82802 7.19725 8.74989C7.041 8.67665 6.63573 8.33485 6.1035 7.37782C5.57128 6.41591 5.18553 5.91786 5.09764 5.81044C5.06346 5.71278 4.98046 5.51259 4.69725 5.29286C4.33104 5.00966 3.95507 5.00477 3.95507 5.00477L3.92089 4.99989H1.19139C1.19139 4.99989 1.03514 5.00477 0.854479 5.04384C0.673816 5.0829 0.415026 5.12685 0.170886 5.42958H0.166003C-0.083021 5.74696 -0.0390756 6.03505 -0.0195444 6.21083C0.00486968 6.39149 0.0585806 6.5331 0.0585806 6.5331L0.0683462 6.56239L0.0829947 6.59169C0.0829947 6.59169 2.16796 11.0399 4.65819 13.7499C6.99706 16.2987 9.70702 16.2499 9.70702 16.2499H11.2451L11.2793 16.245C11.2793 16.245 11.7724 16.2694 12.1875 15.8056C12.3974 15.5663 12.4463 15.3417 12.4707 15.1757C12.5 15.0048 12.5 14.8681 12.5 14.8681V14.9071C12.5 14.9071 12.5195 14.5849 12.6074 14.2479C12.6514 14.0819 12.7148 13.9159 12.7734 13.8231C12.8027 13.7694 12.8027 13.7841 12.8125 13.7694C12.9199 13.8475 13.0957 14.0282 13.2812 14.2577C13.6621 14.7118 14.0918 15.3417 14.6924 15.7763C15.1269 16.0839 15.5371 16.2206 15.8496 16.2694C16.0596 16.3036 16.2109 16.2987 16.3135 16.289L18.4375 16.2499H18.457C18.457 16.2499 18.8965 16.2401 19.3359 15.9618C19.5508 15.8251 19.7998 15.5761 19.8828 15.2196C19.9707 14.8632 19.873 14.4774 19.668 14.121C19.7363 14.2431 19.6533 14.0819 19.5898 13.955C19.5264 13.828 19.4287 13.6571 19.2822 13.4423C18.999 13.0224 18.5303 12.4315 17.7539 11.6796C17.3877 11.328 17.1533 11.1327 17.0068 10.996C17.0508 10.9325 17.0557 10.9276 17.2217 10.7323C17.4853 10.4247 17.8711 9.9706 18.3594 9.29188C18.9453 8.47157 19.3701 7.80263 19.6435 7.24599C19.917 6.69423 20.1367 6.23524 19.8926 5.66884C19.7607 5.36122 19.5264 5.24403 19.3555 5.17079C19.1797 5.09755 19.0234 5.06825 18.8769 5.04384C18.5889 4.99989 18.3349 4.99989 18.3349 4.99989L15.8594 5.01942C15.7861 5.00477 15.5029 4.95106 15.1367 5.18544C14.7754 5.41005 14.6924 5.64931 14.6728 5.72255C14.6142 5.80556 14.2041 6.38661 13.6328 7.40224C13.0566 8.42763 12.666 8.70595 12.6172 8.73036C12.6025 8.71571 12.6318 8.7206 12.5635 8.68153C12.5342 8.65712 12.5049 8.63759 12.4805 8.37392C12.4609 8.11024 12.4853 7.6952 12.4853 7.20692C12.4853 6.15712 12.5781 5.61024 12.5244 5.08778C12.5 4.82411 12.3926 4.50185 12.1582 4.287C11.9238 4.07704 11.6699 3.99892 11.4062 3.93056C10.9912 3.82802 10.4297 3.78407 9.61913 3.77431ZM9.60936 5.02431C10.3662 5.03407 10.8984 5.09267 11.0937 5.14149C11.2598 5.18544 11.2842 5.20497 11.2793 5.1952C11.2793 5.20497 11.2793 5.20009 11.2793 5.21474C11.2988 5.4247 11.2353 6.09852 11.2353 7.20692C11.2353 7.64149 11.2012 8.06142 11.2353 8.48134C11.2695 8.90126 11.4209 9.41395 11.8652 9.71669H11.8701C11.8164 9.68251 12.4316 10.1415 13.0176 9.93153C13.6035 9.71669 14.0674 9.17958 14.7265 8.01259C15.3027 6.97743 15.7275 6.39638 15.7275 6.39638L15.7666 6.33778L15.7959 6.27919C15.7959 6.27919 15.7861 6.27431 15.7959 6.26942L18.3349 6.24989C18.3349 6.24989 18.5107 6.24989 18.6816 6.27919C18.6865 6.27919 18.6914 6.27919 18.6963 6.27919C18.6719 6.28895 18.6914 6.35243 18.5205 6.69911C18.3008 7.14345 17.9053 7.77821 17.3437 8.56435C16.8799 9.20399 16.5332 9.61903 16.2744 9.92177C16.0156 10.2196 15.8203 10.3612 15.6933 10.7518C15.6299 10.9423 15.6445 11.2255 15.7373 11.4159C15.8252 11.6015 15.9326 11.704 16.04 11.8065C16.2549 12.0116 16.5088 12.2118 16.8799 12.578C17.6074 13.2811 18.0176 13.7987 18.2471 14.1405C18.3642 14.3163 18.4326 14.4384 18.4765 14.5263C18.5205 14.6142 18.4912 14.58 18.5889 14.746C18.6719 14.8974 18.6572 14.9169 18.6572 14.9071C18.5742 14.9559 18.3642 14.9999 18.3594 14.9999L16.2353 15.039L16.1767 15.0536C16.1767 15.0536 16.1816 15.0585 16.0498 15.039C15.9131 15.0145 15.6982 14.9559 15.4248 14.7606C15.0879 14.5214 14.6631 13.9647 14.2432 13.4569C14.0381 13.2079 13.8281 12.9638 13.5644 12.7684C13.3008 12.5731 12.8857 12.3925 12.4609 12.5341C12.0947 12.6513 11.8555 12.9198 11.7041 13.1688C11.5527 13.4227 11.4648 13.6864 11.3965 13.9257C11.2695 14.4091 11.25 14.8436 11.25 14.8436V14.8827C11.25 14.8827 11.25 14.912 11.2402 14.9559C11.2158 14.9657 11.1816 14.9901 11.1621 14.9999H9.66796C9.66796 14.9999 7.60253 15.1073 5.57616 12.91C3.40819 10.5419 1.47948 6.58192 1.31835 6.24989H3.83299C3.85741 6.25966 3.9453 6.29384 3.93553 6.28895C3.87694 6.24013 3.96483 6.34755 3.96483 6.34755L4.00389 6.44032L4.07225 6.51845C4.07225 6.51845 4.45799 6.9872 5.00975 7.98329C5.60057 9.05263 6.09862 9.60927 6.65526 9.87782C7.2119 10.1464 7.79784 9.95595 8.04686 9.81435C8.51073 9.54579 8.56444 9.16982 8.64257 8.82313C8.72069 8.47645 8.7451 8.10536 8.75975 7.74403C8.78905 7.05067 8.74999 6.45985 8.74999 6.41591C8.7451 6.40126 8.7451 6.23036 8.69627 6.04481C8.64256 5.85438 8.54491 5.60536 8.35936 5.34169C8.28124 5.23427 8.20799 5.28798 8.12499 5.20985C8.47167 5.1122 8.84276 5.01454 9.60936 5.02431Z" fill="black"/>
</g>
<defs>
<clipPath id="clip0_150_34">
<rect width="20" height="20" fill="white"/>
</clipPath>
</defs>
</svg>
