<svg width="20" height="20" viewBox="0 0 20 20" fill="none" xmlns="http://www.w3.org/2000/svg">
<path d="M9.99999 0.800049C4.9238 0.800049 0.799988 4.92386 0.799988 10C0.799988 11.6317 1.24746 13.1544 1.99374 14.4836L0.814832 18.6922C0.795997 18.7596 0.795146 18.8307 0.812363 18.8985C0.82958 18.9662 0.864264 19.0283 0.912956 19.0785C0.961647 19.1287 1.02265 19.1653 1.08987 19.1845C1.15709 19.2038 1.22819 19.2051 1.29608 19.1883L5.68436 18.1008C6.97384 18.7892 8.43702 19.2 9.99999 19.2C15.0762 19.2 19.2 15.0762 19.2 10C19.2 4.92386 15.0762 0.800049 9.99999 0.800049ZM9.99999 1.60005C14.6438 1.60005 18.4 5.35624 18.4 10C18.4 14.6439 14.6438 18.4 9.99999 18.4C8.5112 18.4 7.11684 18.0119 5.90468 17.3336C5.81602 17.2841 5.71184 17.2701 5.61327 17.2946L1.7703 18.2469L2.80077 14.5704C2.81551 14.5184 2.81959 14.464 2.81274 14.4104C2.80589 14.3569 2.78827 14.3052 2.76093 14.2586C2.02426 13.0095 1.59999 11.5561 1.59999 10C1.59999 5.35624 5.35617 1.60005 9.99999 1.60005ZM6.65702 5.20005C6.4006 5.20005 6.03441 5.29544 5.73358 5.61958C5.5529 5.81427 4.79999 6.54785 4.79999 7.83755C4.79999 9.18216 5.73254 10.3424 5.8453 10.4915H5.84608V10.4922C5.83539 10.4782 5.9892 10.7009 6.19452 10.968C6.39984 11.2351 6.68695 11.5859 7.04764 11.9657C7.76903 12.7252 8.7833 13.603 10.0422 14.1399C10.6219 14.3868 11.0793 14.5358 11.4258 14.6446C12.0679 14.8462 12.6528 14.8156 13.0922 14.7508C13.421 14.7024 13.7827 14.5445 14.1406 14.318C14.4985 14.0915 14.8492 13.8099 15.0039 13.3821C15.1147 13.0753 15.171 12.7919 15.1914 12.5586C15.2016 12.442 15.2029 12.3391 15.1953 12.2438C15.1877 12.1485 15.1958 12.0755 15.107 11.9297C14.9208 11.624 14.7099 11.616 14.4898 11.5071C14.3676 11.4466 14.0195 11.2766 13.6703 11.1102C13.3215 10.944 13.0196 10.7968 12.8336 10.7305C12.7161 10.6882 12.5726 10.6274 12.3656 10.6508C12.1586 10.6743 11.9542 10.8236 11.8351 11C11.7223 11.1673 11.2681 11.7034 11.1297 11.861C11.1278 11.8599 11.1399 11.8654 11.0851 11.8383C10.9139 11.7536 10.7045 11.6815 10.3945 11.518C10.0846 11.3545 9.69689 11.1131 9.27264 10.7391V10.7383C8.6412 10.1824 8.1989 9.48449 8.05936 9.25005C8.06876 9.23886 8.05825 9.25241 8.07811 9.23286L8.07889 9.23208C8.2215 9.09162 8.34788 8.92386 8.45468 8.80083C8.60609 8.6264 8.67291 8.47262 8.7453 8.32896C8.88957 8.04262 8.80924 7.72755 8.72577 7.56177V7.56099C8.73153 7.57245 8.68062 7.46011 8.62577 7.33052C8.57077 7.20055 8.50065 7.03206 8.42577 6.85239C8.276 6.49305 8.1088 6.09001 8.00936 5.85396V5.85317C7.89222 5.57512 7.73375 5.37481 7.52655 5.27817C7.31935 5.18154 7.1363 5.20901 7.12889 5.20864H7.12811C6.98026 5.20182 6.818 5.20005 6.65702 5.20005ZM6.65702 6.00005C6.81124 6.00005 6.96327 6.00193 7.09061 6.00786C7.22161 6.01439 7.21346 6.01493 7.18827 6.00317C7.16267 5.99124 7.1974 5.98736 7.27186 6.16411C7.36923 6.39525 7.53726 6.79975 7.68749 7.16021C7.7626 7.34043 7.8329 7.50958 7.88905 7.64224C7.9452 7.7749 7.97562 7.84897 8.01093 7.91958V7.92036L8.01171 7.92114C8.04632 7.98944 8.04326 7.94571 8.03124 7.96958C7.94683 8.13711 7.93537 8.17825 7.84999 8.27661C7.71998 8.42638 7.58737 8.59341 7.51718 8.66255C7.45576 8.72288 7.34496 8.81686 7.27577 9.00083C7.20648 9.18508 7.23882 9.43788 7.34999 9.62661C7.498 9.87789 7.98575 10.6718 8.74374 11.3391C9.22109 11.7599 9.66581 12.0384 10.0211 12.2258C10.3764 12.4132 10.6657 12.5227 10.7305 12.5547C10.8842 12.6308 11.0522 12.6899 11.2476 12.6665C11.443 12.643 11.6115 12.5244 11.7187 12.4032L11.7195 12.4024C11.8622 12.2406 12.2863 11.7563 12.4898 11.4579C12.4985 11.4609 12.4956 11.4585 12.5633 11.4829V11.4836H12.5641C12.5949 11.4946 12.9817 11.6678 13.3266 11.8321C13.6714 11.9964 14.0214 12.1672 14.1351 12.2235C14.2993 12.3047 14.3768 12.3576 14.3969 12.3579C14.3982 12.3931 14.3996 12.4312 14.3945 12.4891C14.3805 12.6498 14.3375 12.8721 14.2516 13.1102C14.2094 13.2267 13.99 13.4671 13.7133 13.6422C13.4365 13.8174 13.0997 13.9411 12.975 13.9594C12.5999 14.0147 12.1547 14.0349 11.6656 13.8813C11.3265 13.7749 10.9037 13.6371 10.3562 13.404C9.24591 12.9304 8.30222 12.1247 7.62811 11.4149C7.29106 11.06 7.02101 10.7297 6.82889 10.4797C6.63713 10.2303 6.5534 10.1005 6.48358 10.0086L6.4828 10.0079C6.35887 9.84397 5.59999 8.78839 5.59999 7.83755C5.59999 6.83124 6.06739 6.43662 6.3203 6.16411C6.45308 6.02105 6.59823 6.00005 6.65702 6.00005Z" fill="#01FF67"/>
</svg>
